<?xml version="1.0" encoding="UTF-8" standalone="no"?>
<svg
   xmlns:dc="http://purl.org/dc/elements/1.1/"
   xmlns:cc="http://creativecommons.org/ns#"
   xmlns:rdf="http://www.w3.org/1999/02/22-rdf-syntax-ns#"
   xmlns:svg="http://www.w3.org/2000/svg"
   xmlns="http://www.w3.org/2000/svg"
   xmlns:sodipodi="http://sodipodi.sourceforge.net/DTD/sodipodi-0.dtd"
   xmlns:inkscape="http://www.inkscape.org/namespaces/inkscape"
   version="1.1"
   id="Capa_1"
   x="0px"
   y="0px"
   viewBox="0 0 408.576 408.576"
   style="enable-background:new 0 0 408.576 408.576;"
   xml:space="preserve"
   sodipodi:docname="checked.svg"
   inkscape:version="1.0.1 (0767f8302a, 2020-10-17)"><metadata
   id="metadata146"><rdf:RDF><cc:Work
       rdf:about=""><dc:format>image/svg+xml</dc:format><dc:type
         rdf:resource="http://purl.org/dc/dcmitype/StillImage" /></cc:Work></rdf:RDF></metadata><defs
   id="defs144" /><sodipodi:namedview
   pagecolor="#ffffff"
   bordercolor="#666666"
   borderopacity="1"
   objecttolerance="10"
   gridtolerance="10"
   guidetolerance="10"
   inkscape:pageopacity="0"
   inkscape:pageshadow="2"
   inkscape:window-width="1294"
   inkscape:window-height="704"
   id="namedview142"
   showgrid="false"
   inkscape:zoom="1.2751606"
   inkscape:cx="52.542403"
   inkscape:cy="203.50379"
   inkscape:window-x="72"
   inkscape:window-y="27"
   inkscape:window-maximized="1"
   inkscape:current-layer="Capa_1" />
<g
   id="g109">
	<g
   id="g107">
		<path
   d="M204.288,0C91.648,0,0,91.648,0,204.288s91.648,204.288,204.288,204.288s204.288-91.648,204.288-204.288    S316.928,0,204.288,0z M318.464,150.528l-130.56,129.536c-7.68,7.68-19.968,8.192-28.16,0.512L90.624,217.6    c-8.192-7.68-8.704-20.48-1.536-28.672c7.68-8.192,20.48-8.704,28.672-1.024l54.784,50.176L289.28,121.344    c8.192-8.192,20.992-8.192,29.184,0C326.656,129.536,326.656,142.336,318.464,150.528z"
   id="path105" />
	</g>
</g>
<g
   id="g111">
</g>
<g
   id="g113">
</g>
<g
   id="g115">
</g>
<g
   id="g117">
</g>
<g
   id="g119">
</g>
<g
   id="g121">
</g>
<g
   id="g123">
</g>
<g
   id="g125">
</g>
<g
   id="g127">
</g>
<g
   id="g129">
</g>
<g
   id="g131">
</g>
<g
   id="g133">
</g>
<g
   id="g135">
</g>
<g
   id="g137">
</g>
<g
   id="g139">
</g>
<path
   style="fill:#07689f;stroke-width:0.784215;fill-opacity:1"
   d="M 192.40859,407.75315 C 93.668134,402.12716 12.486546,324.79147 1.5586201,225.94451 0.49792757,216.35017 0.5161732,192.17578 1.5915768,182.27884 11.161176,94.209799 77.636859,21.849362 165.07725,4.3205973 c 23.54279,-4.71951204 51.53132,-4.99330771 74.89253,-0.7326303 72.73876,13.266285 132.81495,64.667095 156.88664,134.231233 8.75793,25.30935 12.11696,49.5244 10.79766,77.83992 -3.17527,68.14971 -42.24017,130.90119 -103.37867,166.06128 -24.84092,14.28574 -57.13209,24.1566 -83.911,25.65014 -4.52884,0.25259 -10.35164,0.5742 -12.93955,0.71467 -2.58791,0.14049 -9.34523,-0.009 -15.01627,-0.33206 z M 182.32998,284.36613 c 3.13812,-1.48621 17.40564,-15.25711 71.45211,-68.965 42.86066,-42.59217 68.0597,-68.19629 68.97818,-70.08705 2.17969,-4.48708 2.45043,-13.28631 0.54103,-17.58363 -3.56862,-8.03155 -10.60888,-12.6469 -19.29161,-12.6469 -9.64163,0 -6.80596,-2.46877 -72.00415,62.68744 l -59.33032,59.29213 -1.87942,-1.48748 c -1.03368,-0.8181 -13.60676,-12.25082 -27.94017,-25.40603 -14.3334,-13.1552 -27.71562,-24.8008 -29.73825,-25.87909 -7.50881,-4.00305 -19.021708,-1.96827 -24.31174,4.29684 -5.247276,6.21447 -6.474957,15.48147 -3.015024,22.75857 2.212028,4.65245 2.416535,4.85132 42.036424,40.87731 32.70915,29.74212 35.08074,31.76243 38.81864,33.06903 4.33896,1.5167 11.4076,1.0993 15.6843,-0.92614 z"
   id="path148" /></svg>
