<?xml version="1.0" encoding="utf-8"?>
<!-- Generator: Adobe Illustrator 23.0.1, SVG Export Plug-In . SVG Version: 6.00 Build 0)  -->
<svg version="1.1" id="Calque_1" xmlns="http://www.w3.org/2000/svg" xmlns:xlink="http://www.w3.org/1999/xlink" x="0px" y="0px"
	 viewBox="0 0 512 512" style="enable-background:new 0 0 512 512;" xml:space="preserve">
<style type="text/css">
	.st0{fill:#40A8C4;}
</style>
<path class="st0" d="M256,9.5C119.9,9.5,9.5,119.9,9.5,256S119.9,502.5,256,502.5S502.5,392.1,502.5,256S392.1,9.5,256,9.5z
	 M403.5,276.3c-5.4,5.4-12.6,8.4-20.3,8.4h-4.7v93.6c0,18.5-15.1,33.6-33.6,33.6h-49.7c-5,0-9.1-4.1-9.1-9.1v-73.4
	c0-8.5-6.9-15.3-15.3-15.3h-29.3c-8.5,0-15.3,6.9-15.3,15.3v73.4c0,5-4.1,9.1-9.1,9.1h-49.7c-18.5,0-33.6-15.1-33.6-33.6v-93.6h-5.1
	c-0.3,0-0.6,0-0.9,0c-7.2-0.3-13.9-3.3-19-8.4c-11.2-11.2-11.2-29.3-0.1-40.5c0,0,0.1-0.1,0.1-0.1l127.1-127.1
	c5.4-5.4,12.6-8.4,20.3-8.4s14.9,3,20.3,8.4l127.2,127.2c0,0,0,0,0,0C414.6,246.9,414.6,265.1,403.5,276.3z"/>
</svg>
