<?xml version="1.0" encoding="utf-8"?>
<!-- Generator: Adobe Illustrator 23.0.1, SVG Export Plug-In . SVG Version: 6.00 Build 0)  -->
<svg version="1.1" id="Capa_1" xmlns="http://www.w3.org/2000/svg" xmlns:xlink="http://www.w3.org/1999/xlink" x="0px" y="0px"
	 viewBox="0 0 512 512" style="enable-background:new 0 0 512 512;" xml:space="preserve">
<style type="text/css">
	.st0{fill:#40A8C4;}
</style>
<g>
	<g>
		<path class="st0" d="M181.3,0H74.7c-17.6,0-32,14.4-32,32v448c0,17.6,14.4,32,32,32h106.7c17.6,0,32-14.4,32-32V32
			C213.3,14.4,199,0,181.3,0z"/>
	</g>
</g>
<g>
	<g>
		<path class="st0" d="M437.3,0H330.7c-17.6,0-32,14.4-32,32v448c0,17.6,14.4,32,32,32h106.7c17.6,0,32-14.4,32-32V32
			C469.3,14.4,455,0,437.3,0z"/>
	</g>
</g>
</svg>
