<?xml version="1.0" encoding="utf-8"?>
<!-- Generator: Adobe Illustrator 23.0.1, SVG Export Plug-In . SVG Version: 6.00 Build 0)  -->
<svg version="1.1" id="Capa_1" xmlns="http://www.w3.org/2000/svg" xmlns:xlink="http://www.w3.org/1999/xlink" x="0px" y="0px"
	 viewBox="0 0 512 512" style="enable-background:new 0 0 512 512;" xml:space="preserve">
<style type="text/css">
	.st0{fill:#FF0000;}
</style>
<g>
	<g>
		<g>
			<path class="st0" d="M256,0C114.6,0,0,114.6,0,256s114.6,256,256,256s256-114.6,256-256S397.4,0,256,0z M256,480
				C132.3,480,32,379.7,32,256S132.3,32,256,32s224,100.3,224,224S379.7,480,256,480z"/>
			<circle class="st0" cx="176" cy="176" r="32"/>
			<circle class="st0" cx="336" cy="176" r="32"/>
			<path class="st0" d="M256,240c-79.5,0-144,64.5-144,144h32c0-61.9,50.1-112,112-112s112,50.1,112,112h32
				C400,304.5,335.5,240,256,240z"/>
		</g>
	</g>
</g>
</svg>
