<?xml version="1.0" encoding="utf-8"?>
<!-- Generator: Adobe Illustrator 23.0.1, SVG Export Plug-In . SVG Version: 6.00 Build 0)  -->
<svg version="1.1" id="Calque_1" xmlns="http://www.w3.org/2000/svg" xmlns:xlink="http://www.w3.org/1999/xlink" x="0px" y="0px"
	 viewBox="0 0 512 512" style="enable-background:new 0 0 512 512;" xml:space="preserve">
<style type="text/css">
	.st0{fill:#32B146;}
</style>
<path class="st0" d="M256,0C114.8,0,0,114.8,0,256s114.8,256,256,256s256-114.8,256-256S397.2,0,256,0z M256,482
	C131.4,482,30,380.6,30,256S131.4,30,256,30s226,101.4,226,226S380.6,482,256,482z"/>
<path class="st0" d="M330.9,186.3c10-10,23.4-15.6,37.6-15.6c14.2,0,27.5,5.5,37.6,15.6c5.9,5.9,15.4,5.9,21.2,0s5.9-15.4,0-21.2
	c-15.7-15.7-36.6-24.4-58.8-24.4c-22.2,0-43.1,8.7-58.8,24.4l0,0c-5.9,5.9-5.9,15.4,0,21.2S325,192.1,330.9,186.3z"/>
<path class="st0" d="M105.9,186.3c10-10,23.4-15.6,37.6-15.6c14.2,0,27.5,5.5,37.6,15.6c5.9,5.9,15.4,5.9,21.2,0s5.9-15.4,0-21.2
	c-15.7-15.7-36.6-24.4-58.8-24.4c-22.2,0-43.1,8.7-58.8,24.4l0,0c-5.9,5.9-5.9,15.4,0,21.2S100.1,192.1,105.9,186.3z"/>
<path class="st0" d="M416.7,243H95.3c-8.3,0-15,6.7-15,15c0,97,78.6,175.7,175.7,175.7S431.7,355,431.7,258
	C431.7,249.7,424.9,243,416.7,243z M256,403.7c-75.9,0-137.5-57.8-144.9-130.7h289.8C393.5,345.9,332,403.7,256,403.7z"/>
</svg>
